<mxfile host="app.diagrams.net" modified="2023-10-31T04:35:25.590Z" agent="Mozilla/5.0 (Windows NT 10.0; Win64; x64) AppleWebKit/537.36 (KHTML, like Gecko) Chrome/118.0.0.0 Safari/537.36" etag="coCxydYRVZAO6BkOgBvt" version="22.0.8" type="github" pages="4">
  <diagram id="C5RBs43oDa-KdzZeNtuy" name="MESERO">
    <mxGraphModel dx="794" dy="398" grid="1" gridSize="10" guides="1" tooltips="1" connect="1" arrows="1" fold="1" page="1" pageScale="1" pageWidth="827" pageHeight="1169" math="0" shadow="0">
      <root>
        <mxCell id="WIyWlLk6GJQsqaUBKTNV-0" />
        <mxCell id="WIyWlLk6GJQsqaUBKTNV-1" parent="WIyWlLk6GJQsqaUBKTNV-0" />
        <mxCell id="CDungia_Rln-kpxGpcwq-0" value="MESERO" style="shape=umlActor;verticalLabelPosition=bottom;verticalAlign=top;html=1;outlineConnect=0;fontFamily=Times New Roman;fillColor=#e6d0de;gradientColor=#d5739d;strokeColor=#996185;fontSize=12;" parent="WIyWlLk6GJQsqaUBKTNV-1" vertex="1">
          <mxGeometry x="90" y="320" width="60" height="110" as="geometry" />
        </mxCell>
        <mxCell id="CDungia_Rln-kpxGpcwq-1" value="Inicio de sesion&amp;nbsp;" style="ellipse;whiteSpace=wrap;html=1;fontFamily=Times New Roman;fontSize=12;" parent="WIyWlLk6GJQsqaUBKTNV-1" vertex="1">
          <mxGeometry x="210" y="340" width="120" height="30" as="geometry" />
        </mxCell>
        <mxCell id="CDungia_Rln-kpxGpcwq-2" value="&lt;span style=&quot;white-space: pre; font-size: 12px;&quot;&gt;&#x9;&lt;/span&gt;VerificaciÃ³n de productos" style="ellipse;whiteSpace=wrap;html=1;fontFamily=Times New Roman;fontSize=12;" parent="WIyWlLk6GJQsqaUBKTNV-1" vertex="1">
          <mxGeometry x="210" y="390" width="120" height="30" as="geometry" />
        </mxCell>
        <mxCell id="CDungia_Rln-kpxGpcwq-6" value="" style="endArrow=classic;html=1;rounded=0;entryX=0;entryY=0.5;entryDx=0;entryDy=0;fontFamily=Times New Roman;fontSize=12;" parent="WIyWlLk6GJQsqaUBKTNV-1" target="CDungia_Rln-kpxGpcwq-1" edge="1">
          <mxGeometry width="50" height="50" relative="1" as="geometry">
            <mxPoint x="120" y="380" as="sourcePoint" />
            <mxPoint x="220" y="380.01" as="targetPoint" />
          </mxGeometry>
        </mxCell>
        <mxCell id="CDungia_Rln-kpxGpcwq-23" value="" style="endArrow=classic;html=1;rounded=0;entryX=0;entryY=0.5;entryDx=0;entryDy=0;fontFamily=Times New Roman;fontSize=12;" parent="WIyWlLk6GJQsqaUBKTNV-1" target="CDungia_Rln-kpxGpcwq-2" edge="1">
          <mxGeometry width="50" height="50" relative="1" as="geometry">
            <mxPoint x="120" y="380" as="sourcePoint" />
            <mxPoint x="210" y="400" as="targetPoint" />
          </mxGeometry>
        </mxCell>
        <mxCell id="CDungia_Rln-kpxGpcwq-25" value="" style="endArrow=classic;html=1;rounded=0;entryX=0;entryY=0.5;entryDx=0;entryDy=0;fontFamily=Times New Roman;fontSize=12;" parent="WIyWlLk6GJQsqaUBKTNV-1" target="CDungia_Rln-kpxGpcwq-29" edge="1">
          <mxGeometry width="50" height="50" relative="1" as="geometry">
            <mxPoint x="120" y="380" as="sourcePoint" />
            <mxPoint x="210" y="440" as="targetPoint" />
          </mxGeometry>
        </mxCell>
        <mxCell id="CDungia_Rln-kpxGpcwq-29" value="Realizar ventas" style="ellipse;whiteSpace=wrap;html=1;fontFamily=Times New Roman;fontSize=12;" parent="WIyWlLk6GJQsqaUBKTNV-1" vertex="1">
          <mxGeometry x="210" y="430" width="120" height="30" as="geometry" />
        </mxCell>
        <mxCell id="CDungia_Rln-kpxGpcwq-30" value="MESERO" style="shape=umlActor;verticalLabelPosition=bottom;verticalAlign=top;html=1;outlineConnect=0;fontFamily=Times New Roman;fillColor=#e6d0de;gradientColor=#d5739d;strokeColor=#996185;fontSize=12;" parent="WIyWlLk6GJQsqaUBKTNV-1" vertex="1">
          <mxGeometry x="90" y="560" width="60" height="110" as="geometry" />
        </mxCell>
        <mxCell id="CDungia_Rln-kpxGpcwq-31" value="CLIENTE" style="shape=umlActor;verticalLabelPosition=bottom;verticalAlign=top;html=1;outlineConnect=0;fontFamily=Times New Roman;fillColor=#e6d0de;gradientColor=#d5739d;strokeColor=#996185;fontSize=12;" parent="WIyWlLk6GJQsqaUBKTNV-1" vertex="1">
          <mxGeometry x="580" y="570" width="60" height="110" as="geometry" />
        </mxCell>
        <mxCell id="CDungia_Rln-kpxGpcwq-34" value="Generar Factura" style="ellipse;whiteSpace=wrap;html=1;fontFamily=Times New Roman;fontSize=12;" parent="WIyWlLk6GJQsqaUBKTNV-1" vertex="1">
          <mxGeometry x="260" y="650" width="95" height="60" as="geometry" />
        </mxCell>
        <mxCell id="CDungia_Rln-kpxGpcwq-35" value="Entrega del pedido" style="ellipse;whiteSpace=wrap;html=1;fontFamily=Times New Roman;fontSize=12;" parent="WIyWlLk6GJQsqaUBKTNV-1" vertex="1">
          <mxGeometry x="260" y="590" width="95" height="50" as="geometry" />
        </mxCell>
        <mxCell id="CDungia_Rln-kpxGpcwq-36" value="Generar pedido" style="ellipse;whiteSpace=wrap;html=1;fontFamily=Times New Roman;fontSize=12;" parent="WIyWlLk6GJQsqaUBKTNV-1" vertex="1">
          <mxGeometry x="260" y="525" width="95" height="60" as="geometry" />
        </mxCell>
        <mxCell id="CDungia_Rln-kpxGpcwq-40" value="" style="endArrow=none;html=1;rounded=0;fontFamily=Times New Roman;fontSize=12;" parent="WIyWlLk6GJQsqaUBKTNV-1" edge="1">
          <mxGeometry width="50" height="50" relative="1" as="geometry">
            <mxPoint x="160" y="520" as="sourcePoint" />
            <mxPoint x="560" y="520" as="targetPoint" />
          </mxGeometry>
        </mxCell>
        <mxCell id="CDungia_Rln-kpxGpcwq-42" value="" style="endArrow=none;html=1;rounded=0;fontFamily=Times New Roman;fontSize=12;" parent="WIyWlLk6GJQsqaUBKTNV-1" edge="1">
          <mxGeometry width="50" height="50" relative="1" as="geometry">
            <mxPoint x="160" y="720" as="sourcePoint" />
            <mxPoint x="560" y="720" as="targetPoint" />
          </mxGeometry>
        </mxCell>
        <mxCell id="CDungia_Rln-kpxGpcwq-43" value="" style="endArrow=classic;html=1;rounded=0;entryX=1;entryY=0.5;entryDx=0;entryDy=0;" parent="WIyWlLk6GJQsqaUBKTNV-1" target="CDungia_Rln-kpxGpcwq-36" edge="1">
          <mxGeometry width="50" height="50" relative="1" as="geometry">
            <mxPoint x="560" y="620" as="sourcePoint" />
            <mxPoint x="440" y="560" as="targetPoint" />
          </mxGeometry>
        </mxCell>
        <mxCell id="CDungia_Rln-kpxGpcwq-45" value="" style="endArrow=none;html=1;rounded=0;" parent="WIyWlLk6GJQsqaUBKTNV-1" edge="1">
          <mxGeometry width="50" height="50" relative="1" as="geometry">
            <mxPoint x="160" y="600" as="sourcePoint" />
            <mxPoint x="260" y="560" as="targetPoint" />
          </mxGeometry>
        </mxCell>
        <mxCell id="CDungia_Rln-kpxGpcwq-46" value="" style="endArrow=classic;html=1;rounded=0;entryX=0;entryY=0.5;entryDx=0;entryDy=0;" parent="WIyWlLk6GJQsqaUBKTNV-1" target="CDungia_Rln-kpxGpcwq-35" edge="1">
          <mxGeometry width="50" height="50" relative="1" as="geometry">
            <mxPoint x="160" y="600" as="sourcePoint" />
            <mxPoint x="210" y="550" as="targetPoint" />
          </mxGeometry>
        </mxCell>
        <mxCell id="CDungia_Rln-kpxGpcwq-47" value="" style="endArrow=classic;html=1;rounded=0;entryX=0;entryY=0.5;entryDx=0;entryDy=0;" parent="WIyWlLk6GJQsqaUBKTNV-1" target="CDungia_Rln-kpxGpcwq-34" edge="1">
          <mxGeometry width="50" height="50" relative="1" as="geometry">
            <mxPoint x="160" y="600" as="sourcePoint" />
            <mxPoint x="210" y="550" as="targetPoint" />
          </mxGeometry>
        </mxCell>
        <mxCell id="CDungia_Rln-kpxGpcwq-49" value="Recibe Factura" style="ellipse;whiteSpace=wrap;html=1;fontFamily=Times New Roman;fontSize=12;" parent="WIyWlLk6GJQsqaUBKTNV-1" vertex="1">
          <mxGeometry x="440" y="630" width="95" height="60" as="geometry" />
        </mxCell>
        <mxCell id="CDungia_Rln-kpxGpcwq-51" value="" style="endArrow=none;html=1;rounded=0;" parent="WIyWlLk6GJQsqaUBKTNV-1" edge="1">
          <mxGeometry width="50" height="50" relative="1" as="geometry">
            <mxPoint x="560" y="720" as="sourcePoint" />
            <mxPoint x="560" y="520" as="targetPoint" />
          </mxGeometry>
        </mxCell>
        <mxCell id="CDungia_Rln-kpxGpcwq-52" value="" style="endArrow=none;html=1;rounded=0;" parent="WIyWlLk6GJQsqaUBKTNV-1" edge="1">
          <mxGeometry width="50" height="50" relative="1" as="geometry">
            <mxPoint x="160" y="720" as="sourcePoint" />
            <mxPoint x="160" y="520" as="targetPoint" />
          </mxGeometry>
        </mxCell>
        <mxCell id="CDungia_Rln-kpxGpcwq-53" value="" style="endArrow=none;dashed=1;html=1;rounded=0;entryX=0;entryY=0.5;entryDx=0;entryDy=0;" parent="WIyWlLk6GJQsqaUBKTNV-1" target="CDungia_Rln-kpxGpcwq-49" edge="1">
          <mxGeometry width="50" height="50" relative="1" as="geometry">
            <mxPoint x="360" y="680" as="sourcePoint" />
            <mxPoint x="410" y="660" as="targetPoint" />
          </mxGeometry>
        </mxCell>
        <mxCell id="CDungia_Rln-kpxGpcwq-54" value="&amp;lt;&amp;lt;include&amp;gt;&amp;gt;" style="text;html=1;align=center;verticalAlign=middle;resizable=0;points=[];autosize=1;strokeColor=none;fillColor=none;rotation=-15;" parent="WIyWlLk6GJQsqaUBKTNV-1" vertex="1">
          <mxGeometry x="350" y="645" width="90" height="30" as="geometry" />
        </mxCell>
        <mxCell id="CDungia_Rln-kpxGpcwq-55" value="" style="endArrow=none;html=1;rounded=0;exitX=1;exitY=0.5;exitDx=0;exitDy=0;" parent="WIyWlLk6GJQsqaUBKTNV-1" source="CDungia_Rln-kpxGpcwq-49" edge="1">
          <mxGeometry width="50" height="50" relative="1" as="geometry">
            <mxPoint x="520" y="660" as="sourcePoint" />
            <mxPoint x="560" y="620" as="targetPoint" />
          </mxGeometry>
        </mxCell>
      </root>
    </mxGraphModel>
  </diagram>
  <diagram name="BAR" id="uyrzJn28EC1PDI9LezPf">
    <mxGraphModel dx="794" dy="478" grid="1" gridSize="10" guides="1" tooltips="1" connect="1" arrows="1" fold="1" page="1" pageScale="1" pageWidth="827" pageHeight="1169" math="0" shadow="0">
      <root>
        <mxCell id="U78a5W_wiexEdRj5ytxw-0" />
        <mxCell id="U78a5W_wiexEdRj5ytxw-1" parent="U78a5W_wiexEdRj5ytxw-0" />
        <mxCell id="U78a5W_wiexEdRj5ytxw-2" value="Person" style="swimlane;fontStyle=2;align=center;verticalAlign=top;childLayout=stackLayout;horizontal=1;startSize=26;horizontalStack=0;resizeParent=1;resizeLast=0;collapsible=1;marginBottom=0;rounded=0;shadow=0;strokeWidth=1;" parent="U78a5W_wiexEdRj5ytxw-1" vertex="1">
          <mxGeometry x="220" y="120" width="160" height="138" as="geometry">
            <mxRectangle x="230" y="140" width="160" height="26" as="alternateBounds" />
          </mxGeometry>
        </mxCell>
        <mxCell id="U78a5W_wiexEdRj5ytxw-3" value="Name" style="text;align=left;verticalAlign=top;spacingLeft=4;spacingRight=4;overflow=hidden;rotatable=0;points=[[0,0.5],[1,0.5]];portConstraint=eastwest;" parent="U78a5W_wiexEdRj5ytxw-2" vertex="1">
          <mxGeometry y="26" width="160" height="26" as="geometry" />
        </mxCell>
        <mxCell id="U78a5W_wiexEdRj5ytxw-4" value="Phone Number" style="text;align=left;verticalAlign=top;spacingLeft=4;spacingRight=4;overflow=hidden;rotatable=0;points=[[0,0.5],[1,0.5]];portConstraint=eastwest;rounded=0;shadow=0;html=0;" parent="U78a5W_wiexEdRj5ytxw-2" vertex="1">
          <mxGeometry y="52" width="160" height="26" as="geometry" />
        </mxCell>
        <mxCell id="U78a5W_wiexEdRj5ytxw-5" value="Email Address" style="text;align=left;verticalAlign=top;spacingLeft=4;spacingRight=4;overflow=hidden;rotatable=0;points=[[0,0.5],[1,0.5]];portConstraint=eastwest;rounded=0;shadow=0;html=0;" parent="U78a5W_wiexEdRj5ytxw-2" vertex="1">
          <mxGeometry y="78" width="160" height="26" as="geometry" />
        </mxCell>
        <mxCell id="U78a5W_wiexEdRj5ytxw-6" value="" style="line;html=1;strokeWidth=1;align=left;verticalAlign=middle;spacingTop=-1;spacingLeft=3;spacingRight=3;rotatable=0;labelPosition=right;points=[];portConstraint=eastwest;" parent="U78a5W_wiexEdRj5ytxw-2" vertex="1">
          <mxGeometry y="104" width="160" height="8" as="geometry" />
        </mxCell>
        <mxCell id="U78a5W_wiexEdRj5ytxw-7" value="Purchase Parking Pass" style="text;align=left;verticalAlign=top;spacingLeft=4;spacingRight=4;overflow=hidden;rotatable=0;points=[[0,0.5],[1,0.5]];portConstraint=eastwest;" parent="U78a5W_wiexEdRj5ytxw-2" vertex="1">
          <mxGeometry y="112" width="160" height="26" as="geometry" />
        </mxCell>
        <mxCell id="U78a5W_wiexEdRj5ytxw-8" value="Student" style="swimlane;fontStyle=0;align=center;verticalAlign=top;childLayout=stackLayout;horizontal=1;startSize=26;horizontalStack=0;resizeParent=1;resizeLast=0;collapsible=1;marginBottom=0;rounded=0;shadow=0;strokeWidth=1;" parent="U78a5W_wiexEdRj5ytxw-1" vertex="1">
          <mxGeometry x="120" y="360" width="160" height="138" as="geometry">
            <mxRectangle x="130" y="380" width="160" height="26" as="alternateBounds" />
          </mxGeometry>
        </mxCell>
        <mxCell id="U78a5W_wiexEdRj5ytxw-9" value="Student Number" style="text;align=left;verticalAlign=top;spacingLeft=4;spacingRight=4;overflow=hidden;rotatable=0;points=[[0,0.5],[1,0.5]];portConstraint=eastwest;" parent="U78a5W_wiexEdRj5ytxw-8" vertex="1">
          <mxGeometry y="26" width="160" height="26" as="geometry" />
        </mxCell>
        <mxCell id="U78a5W_wiexEdRj5ytxw-10" value="Average Mark" style="text;align=left;verticalAlign=top;spacingLeft=4;spacingRight=4;overflow=hidden;rotatable=0;points=[[0,0.5],[1,0.5]];portConstraint=eastwest;rounded=0;shadow=0;html=0;" parent="U78a5W_wiexEdRj5ytxw-8" vertex="1">
          <mxGeometry y="52" width="160" height="26" as="geometry" />
        </mxCell>
        <mxCell id="U78a5W_wiexEdRj5ytxw-11" value="" style="line;html=1;strokeWidth=1;align=left;verticalAlign=middle;spacingTop=-1;spacingLeft=3;spacingRight=3;rotatable=0;labelPosition=right;points=[];portConstraint=eastwest;" parent="U78a5W_wiexEdRj5ytxw-8" vertex="1">
          <mxGeometry y="78" width="160" height="8" as="geometry" />
        </mxCell>
        <mxCell id="U78a5W_wiexEdRj5ytxw-12" value="Is Eligible To Enroll" style="text;align=left;verticalAlign=top;spacingLeft=4;spacingRight=4;overflow=hidden;rotatable=0;points=[[0,0.5],[1,0.5]];portConstraint=eastwest;fontStyle=4" parent="U78a5W_wiexEdRj5ytxw-8" vertex="1">
          <mxGeometry y="86" width="160" height="26" as="geometry" />
        </mxCell>
        <mxCell id="U78a5W_wiexEdRj5ytxw-13" value="Get Seminars Taken" style="text;align=left;verticalAlign=top;spacingLeft=4;spacingRight=4;overflow=hidden;rotatable=0;points=[[0,0.5],[1,0.5]];portConstraint=eastwest;" parent="U78a5W_wiexEdRj5ytxw-8" vertex="1">
          <mxGeometry y="112" width="160" height="26" as="geometry" />
        </mxCell>
        <mxCell id="U78a5W_wiexEdRj5ytxw-14" value="" style="endArrow=block;endSize=10;endFill=0;shadow=0;strokeWidth=1;rounded=0;edgeStyle=elbowEdgeStyle;elbow=vertical;" parent="U78a5W_wiexEdRj5ytxw-1" source="U78a5W_wiexEdRj5ytxw-8" target="U78a5W_wiexEdRj5ytxw-2" edge="1">
          <mxGeometry width="160" relative="1" as="geometry">
            <mxPoint x="200" y="203" as="sourcePoint" />
            <mxPoint x="200" y="203" as="targetPoint" />
          </mxGeometry>
        </mxCell>
        <mxCell id="U78a5W_wiexEdRj5ytxw-15" value="Professor" style="swimlane;fontStyle=0;align=center;verticalAlign=top;childLayout=stackLayout;horizontal=1;startSize=26;horizontalStack=0;resizeParent=1;resizeLast=0;collapsible=1;marginBottom=0;rounded=0;shadow=0;strokeWidth=1;" parent="U78a5W_wiexEdRj5ytxw-1" vertex="1">
          <mxGeometry x="330" y="360" width="160" height="70" as="geometry">
            <mxRectangle x="340" y="380" width="170" height="26" as="alternateBounds" />
          </mxGeometry>
        </mxCell>
        <mxCell id="U78a5W_wiexEdRj5ytxw-16" value="Salary" style="text;align=left;verticalAlign=top;spacingLeft=4;spacingRight=4;overflow=hidden;rotatable=0;points=[[0,0.5],[1,0.5]];portConstraint=eastwest;" parent="U78a5W_wiexEdRj5ytxw-15" vertex="1">
          <mxGeometry y="26" width="160" height="26" as="geometry" />
        </mxCell>
        <mxCell id="U78a5W_wiexEdRj5ytxw-17" value="" style="line;html=1;strokeWidth=1;align=left;verticalAlign=middle;spacingTop=-1;spacingLeft=3;spacingRight=3;rotatable=0;labelPosition=right;points=[];portConstraint=eastwest;" parent="U78a5W_wiexEdRj5ytxw-15" vertex="1">
          <mxGeometry y="52" width="160" height="8" as="geometry" />
        </mxCell>
        <mxCell id="U78a5W_wiexEdRj5ytxw-18" value="" style="endArrow=block;endSize=10;endFill=0;shadow=0;strokeWidth=1;rounded=0;edgeStyle=elbowEdgeStyle;elbow=vertical;" parent="U78a5W_wiexEdRj5ytxw-1" source="U78a5W_wiexEdRj5ytxw-15" target="U78a5W_wiexEdRj5ytxw-2" edge="1">
          <mxGeometry width="160" relative="1" as="geometry">
            <mxPoint x="210" y="373" as="sourcePoint" />
            <mxPoint x="310" y="271" as="targetPoint" />
          </mxGeometry>
        </mxCell>
        <mxCell id="U78a5W_wiexEdRj5ytxw-19" value="Address" style="swimlane;fontStyle=0;align=center;verticalAlign=top;childLayout=stackLayout;horizontal=1;startSize=26;horizontalStack=0;resizeParent=1;resizeLast=0;collapsible=1;marginBottom=0;rounded=0;shadow=0;strokeWidth=1;" parent="U78a5W_wiexEdRj5ytxw-1" vertex="1">
          <mxGeometry x="508" y="120" width="160" height="216" as="geometry">
            <mxRectangle x="550" y="140" width="160" height="26" as="alternateBounds" />
          </mxGeometry>
        </mxCell>
        <mxCell id="U78a5W_wiexEdRj5ytxw-20" value="Street" style="text;align=left;verticalAlign=top;spacingLeft=4;spacingRight=4;overflow=hidden;rotatable=0;points=[[0,0.5],[1,0.5]];portConstraint=eastwest;" parent="U78a5W_wiexEdRj5ytxw-19" vertex="1">
          <mxGeometry y="26" width="160" height="26" as="geometry" />
        </mxCell>
        <mxCell id="U78a5W_wiexEdRj5ytxw-21" value="City" style="text;align=left;verticalAlign=top;spacingLeft=4;spacingRight=4;overflow=hidden;rotatable=0;points=[[0,0.5],[1,0.5]];portConstraint=eastwest;rounded=0;shadow=0;html=0;" parent="U78a5W_wiexEdRj5ytxw-19" vertex="1">
          <mxGeometry y="52" width="160" height="26" as="geometry" />
        </mxCell>
        <mxCell id="U78a5W_wiexEdRj5ytxw-22" value="State" style="text;align=left;verticalAlign=top;spacingLeft=4;spacingRight=4;overflow=hidden;rotatable=0;points=[[0,0.5],[1,0.5]];portConstraint=eastwest;rounded=0;shadow=0;html=0;" parent="U78a5W_wiexEdRj5ytxw-19" vertex="1">
          <mxGeometry y="78" width="160" height="26" as="geometry" />
        </mxCell>
        <mxCell id="U78a5W_wiexEdRj5ytxw-23" value="Postal Code" style="text;align=left;verticalAlign=top;spacingLeft=4;spacingRight=4;overflow=hidden;rotatable=0;points=[[0,0.5],[1,0.5]];portConstraint=eastwest;rounded=0;shadow=0;html=0;" parent="U78a5W_wiexEdRj5ytxw-19" vertex="1">
          <mxGeometry y="104" width="160" height="26" as="geometry" />
        </mxCell>
        <mxCell id="U78a5W_wiexEdRj5ytxw-24" value="Country" style="text;align=left;verticalAlign=top;spacingLeft=4;spacingRight=4;overflow=hidden;rotatable=0;points=[[0,0.5],[1,0.5]];portConstraint=eastwest;rounded=0;shadow=0;html=0;" parent="U78a5W_wiexEdRj5ytxw-19" vertex="1">
          <mxGeometry y="130" width="160" height="26" as="geometry" />
        </mxCell>
        <mxCell id="U78a5W_wiexEdRj5ytxw-25" value="" style="line;html=1;strokeWidth=1;align=left;verticalAlign=middle;spacingTop=-1;spacingLeft=3;spacingRight=3;rotatable=0;labelPosition=right;points=[];portConstraint=eastwest;" parent="U78a5W_wiexEdRj5ytxw-19" vertex="1">
          <mxGeometry y="156" width="160" height="8" as="geometry" />
        </mxCell>
        <mxCell id="U78a5W_wiexEdRj5ytxw-26" value="Validate" style="text;align=left;verticalAlign=top;spacingLeft=4;spacingRight=4;overflow=hidden;rotatable=0;points=[[0,0.5],[1,0.5]];portConstraint=eastwest;" parent="U78a5W_wiexEdRj5ytxw-19" vertex="1">
          <mxGeometry y="164" width="160" height="26" as="geometry" />
        </mxCell>
        <mxCell id="U78a5W_wiexEdRj5ytxw-27" value="Output As Label" style="text;align=left;verticalAlign=top;spacingLeft=4;spacingRight=4;overflow=hidden;rotatable=0;points=[[0,0.5],[1,0.5]];portConstraint=eastwest;" parent="U78a5W_wiexEdRj5ytxw-19" vertex="1">
          <mxGeometry y="190" width="160" height="26" as="geometry" />
        </mxCell>
        <mxCell id="U78a5W_wiexEdRj5ytxw-28" value="" style="endArrow=open;shadow=0;strokeWidth=1;rounded=0;endFill=1;edgeStyle=elbowEdgeStyle;elbow=vertical;" parent="U78a5W_wiexEdRj5ytxw-1" source="U78a5W_wiexEdRj5ytxw-2" target="U78a5W_wiexEdRj5ytxw-19" edge="1">
          <mxGeometry x="0.5" y="41" relative="1" as="geometry">
            <mxPoint x="380" y="192" as="sourcePoint" />
            <mxPoint x="540" y="192" as="targetPoint" />
            <mxPoint x="-40" y="32" as="offset" />
          </mxGeometry>
        </mxCell>
        <mxCell id="U78a5W_wiexEdRj5ytxw-29" value="0..1" style="resizable=0;align=left;verticalAlign=bottom;labelBackgroundColor=none;fontSize=12;" parent="U78a5W_wiexEdRj5ytxw-28" connectable="0" vertex="1">
          <mxGeometry x="-1" relative="1" as="geometry">
            <mxPoint y="4" as="offset" />
          </mxGeometry>
        </mxCell>
        <mxCell id="U78a5W_wiexEdRj5ytxw-30" value="1" style="resizable=0;align=right;verticalAlign=bottom;labelBackgroundColor=none;fontSize=12;" parent="U78a5W_wiexEdRj5ytxw-28" connectable="0" vertex="1">
          <mxGeometry x="1" relative="1" as="geometry">
            <mxPoint x="-7" y="4" as="offset" />
          </mxGeometry>
        </mxCell>
        <mxCell id="U78a5W_wiexEdRj5ytxw-31" value="lives at" style="text;html=1;resizable=0;points=[];;align=center;verticalAlign=middle;labelBackgroundColor=none;rounded=0;shadow=0;strokeWidth=1;fontSize=12;" parent="U78a5W_wiexEdRj5ytxw-28" vertex="1" connectable="0">
          <mxGeometry x="0.5" y="49" relative="1" as="geometry">
            <mxPoint x="-38" y="40" as="offset" />
          </mxGeometry>
        </mxCell>
      </root>
    </mxGraphModel>
  </diagram>
  <diagram name="CAJERO" id="6ks3QOqxWbxU5lEoYeaq">
    <mxGraphModel dx="794" dy="398" grid="1" gridSize="10" guides="1" tooltips="1" connect="1" arrows="1" fold="1" page="1" pageScale="1" pageWidth="827" pageHeight="1169" math="0" shadow="0">
      <root>
        <mxCell id="HUmP4-jnOYjWoAJB47kP-0" />
        <mxCell id="HUmP4-jnOYjWoAJB47kP-1" parent="HUmP4-jnOYjWoAJB47kP-0" />
        <mxCell id="HUmP4-jnOYjWoAJB47kP-2" value="Persona" style="swimlane;fontStyle=2;align=center;verticalAlign=top;childLayout=stackLayout;horizontal=1;startSize=26;horizontalStack=0;resizeParent=1;resizeLast=0;collapsible=1;marginBottom=0;rounded=0;shadow=0;strokeWidth=1;" parent="HUmP4-jnOYjWoAJB47kP-1" vertex="1">
          <mxGeometry x="330" y="90" width="160" height="204" as="geometry">
            <mxRectangle x="230" y="140" width="160" height="26" as="alternateBounds" />
          </mxGeometry>
        </mxCell>
        <mxCell id="HUmP4-jnOYjWoAJB47kP-3" value="Nombre" style="text;align=left;verticalAlign=top;spacingLeft=4;spacingRight=4;overflow=hidden;rotatable=0;points=[[0,0.5],[1,0.5]];portConstraint=eastwest;" parent="HUmP4-jnOYjWoAJB47kP-2" vertex="1">
          <mxGeometry y="26" width="160" height="26" as="geometry" />
        </mxCell>
        <mxCell id="HUmP4-jnOYjWoAJB47kP-4" value="ID" style="text;align=left;verticalAlign=top;spacingLeft=4;spacingRight=4;overflow=hidden;rotatable=0;points=[[0,0.5],[1,0.5]];portConstraint=eastwest;rounded=0;shadow=0;html=0;" parent="HUmP4-jnOYjWoAJB47kP-2" vertex="1">
          <mxGeometry y="52" width="160" height="28" as="geometry" />
        </mxCell>
        <mxCell id="xZxbgVRhVAFPskiZTyJH-0" value="usuario&lt;br&gt;" style="text;strokeColor=none;fillColor=none;align=left;verticalAlign=top;spacingLeft=4;spacingRight=4;overflow=hidden;rotatable=0;points=[[0,0.5],[1,0.5]];portConstraint=eastwest;whiteSpace=wrap;html=1;" vertex="1" parent="HUmP4-jnOYjWoAJB47kP-2">
          <mxGeometry y="80" width="160" height="26" as="geometry" />
        </mxCell>
        <mxCell id="xZxbgVRhVAFPskiZTyJH-48" value="CÃ³digo" style="text;align=left;verticalAlign=top;spacingLeft=4;spacingRight=4;overflow=hidden;rotatable=0;points=[[0,0.5],[1,0.5]];portConstraint=eastwest;rounded=0;shadow=0;html=0;" vertex="1" parent="HUmP4-jnOYjWoAJB47kP-2">
          <mxGeometry y="106" width="160" height="30" as="geometry" />
        </mxCell>
        <mxCell id="xZxbgVRhVAFPskiZTyJH-47" value="CÃ³digo" style="text;align=left;verticalAlign=top;spacingLeft=4;spacingRight=4;overflow=hidden;rotatable=0;points=[[0,0.5],[1,0.5]];portConstraint=eastwest;rounded=0;shadow=0;html=0;" vertex="1" parent="HUmP4-jnOYjWoAJB47kP-2">
          <mxGeometry y="136" width="160" height="30" as="geometry" />
        </mxCell>
        <mxCell id="HUmP4-jnOYjWoAJB47kP-5" value="CÃ³digo" style="text;align=left;verticalAlign=top;spacingLeft=4;spacingRight=4;overflow=hidden;rotatable=0;points=[[0,0.5],[1,0.5]];portConstraint=eastwest;rounded=0;shadow=0;html=0;" parent="HUmP4-jnOYjWoAJB47kP-2" vertex="1">
          <mxGeometry y="166" width="160" height="30" as="geometry" />
        </mxCell>
        <mxCell id="HUmP4-jnOYjWoAJB47kP-6" value="" style="line;html=1;strokeWidth=1;align=left;verticalAlign=middle;spacingTop=-1;spacingLeft=3;spacingRight=3;rotatable=0;labelPosition=right;points=[];portConstraint=eastwest;" parent="HUmP4-jnOYjWoAJB47kP-2" vertex="1">
          <mxGeometry y="196" width="160" height="8" as="geometry" />
        </mxCell>
        <mxCell id="4wfHX-8NDGqYXQVJ519T-0" value="Cajero" style="shape=umlActor;verticalLabelPosition=bottom;verticalAlign=top;html=1;outlineConnect=0;" parent="HUmP4-jnOYjWoAJB47kP-1" vertex="1">
          <mxGeometry x="110" y="590" width="80" height="120" as="geometry" />
        </mxCell>
        <mxCell id="4wfHX-8NDGqYXQVJ519T-1" value="Inicio de sesion&amp;nbsp;" style="ellipse;whiteSpace=wrap;html=1;" parent="HUmP4-jnOYjWoAJB47kP-1" vertex="1">
          <mxGeometry x="310" y="570" width="120" height="30" as="geometry" />
        </mxCell>
        <mxCell id="4wfHX-8NDGqYXQVJ519T-2" value="Registro de pago" style="ellipse;whiteSpace=wrap;html=1;" parent="HUmP4-jnOYjWoAJB47kP-1" vertex="1">
          <mxGeometry x="310" y="610" width="120" height="30" as="geometry" />
        </mxCell>
        <mxCell id="4wfHX-8NDGqYXQVJ519T-3" value="Consulta de datos" style="ellipse;whiteSpace=wrap;html=1;" parent="HUmP4-jnOYjWoAJB47kP-1" vertex="1">
          <mxGeometry x="310" y="650" width="120" height="30" as="geometry" />
        </mxCell>
        <mxCell id="4wfHX-8NDGqYXQVJ519T-4" value="Menu clientes" style="ellipse;whiteSpace=wrap;html=1;" parent="HUmP4-jnOYjWoAJB47kP-1" vertex="1">
          <mxGeometry x="310" y="690" width="120" height="30" as="geometry" />
        </mxCell>
        <mxCell id="4wfHX-8NDGqYXQVJ519T-5" style="edgeStyle=orthogonalEdgeStyle;rounded=0;orthogonalLoop=1;jettySize=auto;html=1;exitX=0.5;exitY=1;exitDx=0;exitDy=0;" parent="HUmP4-jnOYjWoAJB47kP-1" source="4wfHX-8NDGqYXQVJ519T-3" target="4wfHX-8NDGqYXQVJ519T-3" edge="1">
          <mxGeometry relative="1" as="geometry" />
        </mxCell>
        <mxCell id="4wfHX-8NDGqYXQVJ519T-6" value="" style="endArrow=classic;html=1;rounded=0;entryX=-0.008;entryY=0.767;entryDx=0;entryDy=0;entryPerimeter=0;" parent="HUmP4-jnOYjWoAJB47kP-1" target="4wfHX-8NDGqYXQVJ519T-1" edge="1">
          <mxGeometry width="50" height="50" relative="1" as="geometry">
            <mxPoint x="200" y="640" as="sourcePoint" />
            <mxPoint x="250" y="590" as="targetPoint" />
          </mxGeometry>
        </mxCell>
        <mxCell id="4wfHX-8NDGqYXQVJ519T-7" value="" style="endArrow=classic;html=1;rounded=0;" parent="HUmP4-jnOYjWoAJB47kP-1" target="4wfHX-8NDGqYXQVJ519T-2" edge="1">
          <mxGeometry width="50" height="50" relative="1" as="geometry">
            <mxPoint x="200" y="640" as="sourcePoint" />
            <mxPoint x="319" y="616.5" as="targetPoint" />
          </mxGeometry>
        </mxCell>
        <mxCell id="4wfHX-8NDGqYXQVJ519T-8" value="" style="endArrow=classic;html=1;rounded=0;" parent="HUmP4-jnOYjWoAJB47kP-1" target="4wfHX-8NDGqYXQVJ519T-3" edge="1">
          <mxGeometry width="50" height="50" relative="1" as="geometry">
            <mxPoint x="200" y="640" as="sourcePoint" />
            <mxPoint x="329" y="613" as="targetPoint" />
          </mxGeometry>
        </mxCell>
        <mxCell id="4wfHX-8NDGqYXQVJ519T-9" value="" style="endArrow=classic;html=1;rounded=0;entryX=0.083;entryY=0.267;entryDx=0;entryDy=0;entryPerimeter=0;" parent="HUmP4-jnOYjWoAJB47kP-1" target="4wfHX-8NDGqYXQVJ519T-4" edge="1">
          <mxGeometry width="50" height="50" relative="1" as="geometry">
            <mxPoint x="200" y="640" as="sourcePoint" />
            <mxPoint x="339" y="623" as="targetPoint" />
          </mxGeometry>
        </mxCell>
        <mxCell id="4wfHX-8NDGqYXQVJ519T-21" style="edgeStyle=orthogonalEdgeStyle;rounded=0;orthogonalLoop=1;jettySize=auto;html=1;entryX=0.5;entryY=0;entryDx=0;entryDy=0;" parent="HUmP4-jnOYjWoAJB47kP-1" source="4wfHX-8NDGqYXQVJ519T-10" target="4wfHX-8NDGqYXQVJ519T-11" edge="1">
          <mxGeometry relative="1" as="geometry" />
        </mxCell>
        <mxCell id="4wfHX-8NDGqYXQVJ519T-10" value="inicio" style="strokeWidth=2;html=1;shape=mxgraph.flowchart.start_2;whiteSpace=wrap;" parent="HUmP4-jnOYjWoAJB47kP-1" vertex="1">
          <mxGeometry x="490" y="460" width="80" height="80" as="geometry" />
        </mxCell>
        <mxCell id="4wfHX-8NDGqYXQVJ519T-11" value="Ingreso usuario y contraseÃ±a&amp;nbsp;" style="rounded=1;whiteSpace=wrap;html=1;absoluteArcSize=1;arcSize=14;strokeWidth=2;" parent="HUmP4-jnOYjWoAJB47kP-1" vertex="1">
          <mxGeometry x="460" y="570" width="140" height="30" as="geometry" />
        </mxCell>
        <mxCell id="H0mB1ZVKSSZ8GYhU0xZ9-3" style="edgeStyle=orthogonalEdgeStyle;rounded=0;orthogonalLoop=1;jettySize=auto;html=1;entryX=0.5;entryY=0;entryDx=0;entryDy=0;" parent="HUmP4-jnOYjWoAJB47kP-1" source="4wfHX-8NDGqYXQVJ519T-12" target="4wfHX-8NDGqYXQVJ519T-13" edge="1">
          <mxGeometry relative="1" as="geometry" />
        </mxCell>
        <mxCell id="H0mB1ZVKSSZ8GYhU0xZ9-7" style="edgeStyle=orthogonalEdgeStyle;rounded=0;orthogonalLoop=1;jettySize=auto;html=1;" parent="HUmP4-jnOYjWoAJB47kP-1" edge="1">
          <mxGeometry relative="1" as="geometry">
            <mxPoint x="646" y="660" as="targetPoint" />
            <mxPoint x="576" y="660" as="sourcePoint" />
          </mxGeometry>
        </mxCell>
        <mxCell id="4wfHX-8NDGqYXQVJ519T-12" value="usuario registrado&amp;nbsp;&amp;nbsp;" style="strokeWidth=2;html=1;shape=mxgraph.flowchart.decision;whiteSpace=wrap;" parent="HUmP4-jnOYjWoAJB47kP-1" vertex="1">
          <mxGeometry x="490" y="630" width="100" height="60" as="geometry" />
        </mxCell>
        <mxCell id="H0mB1ZVKSSZ8GYhU0xZ9-1" style="edgeStyle=orthogonalEdgeStyle;rounded=0;orthogonalLoop=1;jettySize=auto;html=1;exitX=0.5;exitY=0;exitDx=0;exitDy=0;" parent="HUmP4-jnOYjWoAJB47kP-1" source="4wfHX-8NDGqYXQVJ519T-13" edge="1">
          <mxGeometry relative="1" as="geometry">
            <mxPoint x="540" y="720" as="targetPoint" />
          </mxGeometry>
        </mxCell>
        <mxCell id="H0mB1ZVKSSZ8GYhU0xZ9-13" style="edgeStyle=orthogonalEdgeStyle;rounded=0;orthogonalLoop=1;jettySize=auto;html=1;entryX=0.5;entryY=0;entryDx=0;entryDy=0;" parent="HUmP4-jnOYjWoAJB47kP-1" source="4wfHX-8NDGqYXQVJ519T-13" target="H0mB1ZVKSSZ8GYhU0xZ9-10" edge="1">
          <mxGeometry relative="1" as="geometry" />
        </mxCell>
        <mxCell id="4wfHX-8NDGqYXQVJ519T-13" value="inicio de&amp;nbsp; seccion&amp;nbsp;" style="whiteSpace=wrap;html=1;strokeWidth=2;" parent="HUmP4-jnOYjWoAJB47kP-1" vertex="1">
          <mxGeometry x="480" y="720" width="120" height="60" as="geometry" />
        </mxCell>
        <mxCell id="4wfHX-8NDGqYXQVJ519T-20" style="edgeStyle=orthogonalEdgeStyle;rounded=0;orthogonalLoop=1;jettySize=auto;html=1;exitX=0.5;exitY=1;exitDx=0;exitDy=0;entryX=0.5;entryY=0;entryDx=0;entryDy=0;entryPerimeter=0;" parent="HUmP4-jnOYjWoAJB47kP-1" source="4wfHX-8NDGqYXQVJ519T-11" target="4wfHX-8NDGqYXQVJ519T-12" edge="1">
          <mxGeometry relative="1" as="geometry" />
        </mxCell>
        <mxCell id="H0mB1ZVKSSZ8GYhU0xZ9-4" value="NO" style="text;html=1;align=center;verticalAlign=middle;resizable=0;points=[];autosize=1;strokeColor=none;fillColor=none;" parent="HUmP4-jnOYjWoAJB47kP-1" vertex="1">
          <mxGeometry x="600" y="628" width="40" height="30" as="geometry" />
        </mxCell>
        <mxCell id="H0mB1ZVKSSZ8GYhU0xZ9-5" value="SI" style="text;html=1;align=center;verticalAlign=middle;resizable=0;points=[];autosize=1;strokeColor=none;fillColor=none;" parent="HUmP4-jnOYjWoAJB47kP-1" vertex="1">
          <mxGeometry x="500" y="688" width="30" height="30" as="geometry" />
        </mxCell>
        <mxCell id="H0mB1ZVKSSZ8GYhU0xZ9-9" style="edgeStyle=orthogonalEdgeStyle;rounded=0;orthogonalLoop=1;jettySize=auto;html=1;entryX=1;entryY=0.5;entryDx=0;entryDy=0;" parent="HUmP4-jnOYjWoAJB47kP-1" source="H0mB1ZVKSSZ8GYhU0xZ9-6" target="4wfHX-8NDGqYXQVJ519T-11" edge="1">
          <mxGeometry relative="1" as="geometry">
            <mxPoint x="670" y="570" as="targetPoint" />
            <Array as="points">
              <mxPoint x="720" y="585" />
            </Array>
          </mxGeometry>
        </mxCell>
        <mxCell id="H0mB1ZVKSSZ8GYhU0xZ9-6" value="Registrar usuario" style="rounded=1;whiteSpace=wrap;html=1;absoluteArcSize=1;arcSize=14;strokeWidth=2;" parent="HUmP4-jnOYjWoAJB47kP-1" vertex="1">
          <mxGeometry x="650" y="645" width="140" height="30" as="geometry" />
        </mxCell>
        <mxCell id="H0mB1ZVKSSZ8GYhU0xZ9-12" style="edgeStyle=orthogonalEdgeStyle;rounded=0;orthogonalLoop=1;jettySize=auto;html=1;entryX=-0.05;entryY=0.667;entryDx=0;entryDy=0;entryPerimeter=0;" parent="HUmP4-jnOYjWoAJB47kP-1" source="H0mB1ZVKSSZ8GYhU0xZ9-10" target="H0mB1ZVKSSZ8GYhU0xZ9-11" edge="1">
          <mxGeometry relative="1" as="geometry">
            <mxPoint x="640" y="835" as="targetPoint" />
          </mxGeometry>
        </mxCell>
        <mxCell id="H0mB1ZVKSSZ8GYhU0xZ9-10" value="Consultar datos de Pedido" style="whiteSpace=wrap;html=1;strokeWidth=2;" parent="HUmP4-jnOYjWoAJB47kP-1" vertex="1">
          <mxGeometry x="480" y="820" width="120" height="30" as="geometry" />
        </mxCell>
        <mxCell id="H0mB1ZVKSSZ8GYhU0xZ9-19" style="edgeStyle=orthogonalEdgeStyle;rounded=0;orthogonalLoop=1;jettySize=auto;html=1;entryX=0.92;entryY=0.14;entryDx=0;entryDy=0;entryPerimeter=0;" parent="HUmP4-jnOYjWoAJB47kP-1" source="H0mB1ZVKSSZ8GYhU0xZ9-11" target="H0mB1ZVKSSZ8GYhU0xZ9-17" edge="1">
          <mxGeometry relative="1" as="geometry">
            <mxPoint x="690" y="850" as="targetPoint" />
            <Array as="points">
              <mxPoint x="710" y="878" />
            </Array>
          </mxGeometry>
        </mxCell>
        <mxCell id="H0mB1ZVKSSZ8GYhU0xZ9-11" value="BD" style="strokeWidth=2;html=1;shape=mxgraph.flowchart.database;whiteSpace=wrap;" parent="HUmP4-jnOYjWoAJB47kP-1" vertex="1">
          <mxGeometry x="668" y="780" width="60" height="40" as="geometry" />
        </mxCell>
        <mxCell id="H0mB1ZVKSSZ8GYhU0xZ9-14" value="Registrar pago&amp;nbsp;" style="whiteSpace=wrap;html=1;strokeWidth=2;" parent="HUmP4-jnOYjWoAJB47kP-1" vertex="1">
          <mxGeometry x="490" y="952.5" width="120" height="27.5" as="geometry" />
        </mxCell>
        <mxCell id="H0mB1ZVKSSZ8GYhU0xZ9-15" value="BD" style="strokeWidth=2;html=1;shape=mxgraph.flowchart.database;whiteSpace=wrap;" parent="HUmP4-jnOYjWoAJB47kP-1" vertex="1">
          <mxGeometry x="668" y="943.75" width="60" height="45" as="geometry" />
        </mxCell>
        <mxCell id="H0mB1ZVKSSZ8GYhU0xZ9-23" style="edgeStyle=orthogonalEdgeStyle;rounded=0;orthogonalLoop=1;jettySize=auto;html=1;" parent="HUmP4-jnOYjWoAJB47kP-1" source="H0mB1ZVKSSZ8GYhU0xZ9-17" edge="1">
          <mxGeometry relative="1" as="geometry">
            <mxPoint x="540" y="950" as="targetPoint" />
          </mxGeometry>
        </mxCell>
        <mxCell id="H0mB1ZVKSSZ8GYhU0xZ9-17" value="cantidad y precio por bebida" style="strokeWidth=2;html=1;shape=mxgraph.flowchart.display;whiteSpace=wrap;" parent="HUmP4-jnOYjWoAJB47kP-1" vertex="1">
          <mxGeometry x="480" y="870" width="120" height="40" as="geometry" />
        </mxCell>
        <mxCell id="H0mB1ZVKSSZ8GYhU0xZ9-24" style="edgeStyle=orthogonalEdgeStyle;rounded=0;orthogonalLoop=1;jettySize=auto;html=1;entryX=0;entryY=0.5;entryDx=0;entryDy=0;entryPerimeter=0;" parent="HUmP4-jnOYjWoAJB47kP-1" source="H0mB1ZVKSSZ8GYhU0xZ9-14" target="H0mB1ZVKSSZ8GYhU0xZ9-15" edge="1">
          <mxGeometry relative="1" as="geometry" />
        </mxCell>
        <mxCell id="H0mB1ZVKSSZ8GYhU0xZ9-26" style="edgeStyle=orthogonalEdgeStyle;rounded=0;orthogonalLoop=1;jettySize=auto;html=1;entryX=0.5;entryY=0;entryDx=0;entryDy=0;entryPerimeter=0;" parent="HUmP4-jnOYjWoAJB47kP-1" source="H0mB1ZVKSSZ8GYhU0xZ9-14" edge="1">
          <mxGeometry relative="1" as="geometry">
            <mxPoint x="550" y="1010" as="targetPoint" />
          </mxGeometry>
        </mxCell>
        <mxCell id="H0mB1ZVKSSZ8GYhU0xZ9-31" value="" style="edgeStyle=orthogonalEdgeStyle;rounded=0;orthogonalLoop=1;jettySize=auto;html=1;" parent="HUmP4-jnOYjWoAJB47kP-1" source="H0mB1ZVKSSZ8GYhU0xZ9-27" target="H0mB1ZVKSSZ8GYhU0xZ9-28" edge="1">
          <mxGeometry relative="1" as="geometry" />
        </mxCell>
        <mxCell id="H0mB1ZVKSSZ8GYhU0xZ9-27" value="Generacion de facturas&amp;nbsp; para bases de datos y&amp;nbsp; en fisico para clienbte" style="strokeWidth=2;html=1;shape=mxgraph.flowchart.multi-document;whiteSpace=wrap;" parent="HUmP4-jnOYjWoAJB47kP-1" vertex="1">
          <mxGeometry x="480" y="1017.5" width="160" height="70" as="geometry" />
        </mxCell>
        <mxCell id="H0mB1ZVKSSZ8GYhU0xZ9-28" value="BD" style="strokeWidth=2;html=1;shape=mxgraph.flowchart.database;whiteSpace=wrap;" parent="HUmP4-jnOYjWoAJB47kP-1" vertex="1">
          <mxGeometry x="668" y="1030" width="60" height="45" as="geometry" />
        </mxCell>
        <mxCell id="H0mB1ZVKSSZ8GYhU0xZ9-32" value="FIN" style="strokeWidth=2;html=1;shape=mxgraph.flowchart.terminator;whiteSpace=wrap;" parent="HUmP4-jnOYjWoAJB47kP-1" vertex="1">
          <mxGeometry x="510" y="1109" width="100" height="60" as="geometry" />
        </mxCell>
        <mxCell id="Lfw9JMB-DRZQ4h1b1JHC-0" value="&lt;font style=&quot;vertical-align: inherit;&quot;&gt;&lt;font style=&quot;vertical-align: inherit;&quot;&gt;Bar&lt;/font&gt;&lt;/font&gt;" style="swimlane;fontStyle=0;childLayout=stackLayout;horizontal=1;startSize=26;fillColor=none;horizontalStack=0;resizeParent=1;resizeParentMax=0;resizeLast=0;collapsible=1;marginBottom=0;whiteSpace=wrap;html=1;" vertex="1" parent="HUmP4-jnOYjWoAJB47kP-1">
          <mxGeometry x="60" y="16" width="130" height="154" as="geometry" />
        </mxCell>
        <mxCell id="Lfw9JMB-DRZQ4h1b1JHC-1" value="&lt;font style=&quot;vertical-align: inherit;&quot;&gt;&lt;font style=&quot;vertical-align: inherit;&quot;&gt;&lt;font style=&quot;vertical-align: inherit;&quot;&gt;&lt;font style=&quot;vertical-align: inherit;&quot;&gt;&lt;font style=&quot;vertical-align: inherit;&quot;&gt;&lt;font style=&quot;vertical-align: inherit;&quot;&gt;personas&lt;/font&gt;&lt;/font&gt;&lt;/font&gt;&lt;/font&gt;&lt;/font&gt;&lt;/font&gt;" style="text;strokeColor=none;fillColor=none;align=left;verticalAlign=top;spacingLeft=4;spacingRight=4;overflow=hidden;rotatable=0;points=[[0,0.5],[1,0.5]];portConstraint=eastwest;whiteSpace=wrap;html=1;" vertex="1" parent="Lfw9JMB-DRZQ4h1b1JHC-0">
          <mxGeometry y="26" width="130" height="24" as="geometry" />
        </mxCell>
        <mxCell id="Lfw9JMB-DRZQ4h1b1JHC-2" value="&lt;font style=&quot;vertical-align: inherit;&quot;&gt;&lt;font style=&quot;vertical-align: inherit;&quot;&gt;&lt;font style=&quot;vertical-align: inherit;&quot;&gt;&lt;font style=&quot;vertical-align: inherit;&quot;&gt;bebidas&lt;/font&gt;&lt;/font&gt;&lt;/font&gt;&lt;/font&gt;" style="text;strokeColor=none;fillColor=none;align=left;verticalAlign=top;spacingLeft=4;spacingRight=4;overflow=hidden;rotatable=0;points=[[0,0.5],[1,0.5]];portConstraint=eastwest;whiteSpace=wrap;html=1;" vertex="1" parent="Lfw9JMB-DRZQ4h1b1JHC-0">
          <mxGeometry y="50" width="130" height="26" as="geometry" />
        </mxCell>
        <mxCell id="Lfw9JMB-DRZQ4h1b1JHC-16" value="&lt;font style=&quot;vertical-align: inherit;&quot;&gt;&lt;font style=&quot;vertical-align: inherit;&quot;&gt;productos&lt;/font&gt;&lt;/font&gt;" style="text;strokeColor=none;fillColor=none;align=left;verticalAlign=top;spacingLeft=4;spacingRight=4;overflow=hidden;rotatable=0;points=[[0,0.5],[1,0.5]];portConstraint=eastwest;whiteSpace=wrap;html=1;" vertex="1" parent="Lfw9JMB-DRZQ4h1b1JHC-0">
          <mxGeometry y="76" width="130" height="26" as="geometry" />
        </mxCell>
        <mxCell id="Lfw9JMB-DRZQ4h1b1JHC-17" value="Cantidad" style="text;strokeColor=none;fillColor=none;align=left;verticalAlign=top;spacingLeft=4;spacingRight=4;overflow=hidden;rotatable=0;points=[[0,0.5],[1,0.5]];portConstraint=eastwest;whiteSpace=wrap;html=1;" vertex="1" parent="Lfw9JMB-DRZQ4h1b1JHC-0">
          <mxGeometry y="102" width="130" height="26" as="geometry" />
        </mxCell>
        <mxCell id="Lfw9JMB-DRZQ4h1b1JHC-3" value="Cobrar" style="text;strokeColor=none;fillColor=none;align=left;verticalAlign=top;spacingLeft=4;spacingRight=4;overflow=hidden;rotatable=0;points=[[0,0.5],[1,0.5]];portConstraint=eastwest;whiteSpace=wrap;html=1;" vertex="1" parent="Lfw9JMB-DRZQ4h1b1JHC-0">
          <mxGeometry y="128" width="130" height="26" as="geometry" />
        </mxCell>
        <mxCell id="xZxbgVRhVAFPskiZTyJH-1" value="Administrador" style="swimlane;fontStyle=2;align=center;verticalAlign=top;childLayout=stackLayout;horizontal=1;startSize=26;horizontalStack=0;resizeParent=1;resizeLast=0;collapsible=1;marginBottom=0;rounded=0;shadow=0;strokeWidth=1;" vertex="1" parent="HUmP4-jnOYjWoAJB47kP-1">
          <mxGeometry x="540" y="16" width="160" height="174" as="geometry">
            <mxRectangle x="230" y="140" width="160" height="26" as="alternateBounds" />
          </mxGeometry>
        </mxCell>
        <mxCell id="xZxbgVRhVAFPskiZTyJH-2" value="Nombre" style="text;align=left;verticalAlign=top;spacingLeft=4;spacingRight=4;overflow=hidden;rotatable=0;points=[[0,0.5],[1,0.5]];portConstraint=eastwest;" vertex="1" parent="xZxbgVRhVAFPskiZTyJH-1">
          <mxGeometry y="26" width="160" height="26" as="geometry" />
        </mxCell>
        <mxCell id="xZxbgVRhVAFPskiZTyJH-3" value="ID" style="text;align=left;verticalAlign=top;spacingLeft=4;spacingRight=4;overflow=hidden;rotatable=0;points=[[0,0.5],[1,0.5]];portConstraint=eastwest;rounded=0;shadow=0;html=0;" vertex="1" parent="xZxbgVRhVAFPskiZTyJH-1">
          <mxGeometry y="52" width="160" height="28" as="geometry" />
        </mxCell>
        <mxCell id="xZxbgVRhVAFPskiZTyJH-4" value="usuario&lt;br&gt;" style="text;strokeColor=none;fillColor=none;align=left;verticalAlign=top;spacingLeft=4;spacingRight=4;overflow=hidden;rotatable=0;points=[[0,0.5],[1,0.5]];portConstraint=eastwest;whiteSpace=wrap;html=1;" vertex="1" parent="xZxbgVRhVAFPskiZTyJH-1">
          <mxGeometry y="80" width="160" height="26" as="geometry" />
        </mxCell>
        <mxCell id="xZxbgVRhVAFPskiZTyJH-5" value="CÃ³digo" style="text;align=left;verticalAlign=top;spacingLeft=4;spacingRight=4;overflow=hidden;rotatable=0;points=[[0,0.5],[1,0.5]];portConstraint=eastwest;rounded=0;shadow=0;html=0;" vertex="1" parent="xZxbgVRhVAFPskiZTyJH-1">
          <mxGeometry y="106" width="160" height="30" as="geometry" />
        </mxCell>
        <mxCell id="xZxbgVRhVAFPskiZTyJH-6" value="" style="line;html=1;strokeWidth=1;align=left;verticalAlign=middle;spacingTop=-1;spacingLeft=3;spacingRight=3;rotatable=0;labelPosition=right;points=[];portConstraint=eastwest;" vertex="1" parent="xZxbgVRhVAFPskiZTyJH-1">
          <mxGeometry y="136" width="160" height="8" as="geometry" />
        </mxCell>
        <mxCell id="xZxbgVRhVAFPskiZTyJH-8" value="Cajero" style="swimlane;fontStyle=2;align=center;verticalAlign=top;childLayout=stackLayout;horizontal=1;startSize=26;horizontalStack=0;resizeParent=1;resizeLast=0;collapsible=1;marginBottom=0;rounded=0;shadow=0;strokeWidth=1;" vertex="1" parent="HUmP4-jnOYjWoAJB47kP-1">
          <mxGeometry x="290" y="310" width="160" height="174" as="geometry">
            <mxRectangle x="230" y="140" width="160" height="26" as="alternateBounds" />
          </mxGeometry>
        </mxCell>
        <mxCell id="xZxbgVRhVAFPskiZTyJH-9" value="Nombre" style="text;align=left;verticalAlign=top;spacingLeft=4;spacingRight=4;overflow=hidden;rotatable=0;points=[[0,0.5],[1,0.5]];portConstraint=eastwest;" vertex="1" parent="xZxbgVRhVAFPskiZTyJH-8">
          <mxGeometry y="26" width="160" height="26" as="geometry" />
        </mxCell>
        <mxCell id="xZxbgVRhVAFPskiZTyJH-10" value="ID" style="text;align=left;verticalAlign=top;spacingLeft=4;spacingRight=4;overflow=hidden;rotatable=0;points=[[0,0.5],[1,0.5]];portConstraint=eastwest;rounded=0;shadow=0;html=0;" vertex="1" parent="xZxbgVRhVAFPskiZTyJH-8">
          <mxGeometry y="52" width="160" height="28" as="geometry" />
        </mxCell>
        <mxCell id="xZxbgVRhVAFPskiZTyJH-11" value="usuario&lt;br&gt;" style="text;strokeColor=none;fillColor=none;align=left;verticalAlign=top;spacingLeft=4;spacingRight=4;overflow=hidden;rotatable=0;points=[[0,0.5],[1,0.5]];portConstraint=eastwest;whiteSpace=wrap;html=1;" vertex="1" parent="xZxbgVRhVAFPskiZTyJH-8">
          <mxGeometry y="80" width="160" height="26" as="geometry" />
        </mxCell>
        <mxCell id="xZxbgVRhVAFPskiZTyJH-12" value="CÃ³digo" style="text;align=left;verticalAlign=top;spacingLeft=4;spacingRight=4;overflow=hidden;rotatable=0;points=[[0,0.5],[1,0.5]];portConstraint=eastwest;rounded=0;shadow=0;html=0;" vertex="1" parent="xZxbgVRhVAFPskiZTyJH-8">
          <mxGeometry y="106" width="160" height="30" as="geometry" />
        </mxCell>
        <mxCell id="xZxbgVRhVAFPskiZTyJH-13" value="" style="line;html=1;strokeWidth=1;align=left;verticalAlign=middle;spacingTop=-1;spacingLeft=3;spacingRight=3;rotatable=0;labelPosition=right;points=[];portConstraint=eastwest;" vertex="1" parent="xZxbgVRhVAFPskiZTyJH-8">
          <mxGeometry y="136" width="160" height="8" as="geometry" />
        </mxCell>
        <mxCell id="xZxbgVRhVAFPskiZTyJH-15" value="Mesero" style="swimlane;fontStyle=2;align=center;verticalAlign=top;childLayout=stackLayout;horizontal=1;startSize=26;horizontalStack=0;resizeParent=1;resizeLast=0;collapsible=1;marginBottom=0;rounded=0;shadow=0;strokeWidth=1;" vertex="1" parent="HUmP4-jnOYjWoAJB47kP-1">
          <mxGeometry x="590" y="290" width="160" height="174" as="geometry">
            <mxRectangle x="230" y="140" width="160" height="26" as="alternateBounds" />
          </mxGeometry>
        </mxCell>
        <mxCell id="xZxbgVRhVAFPskiZTyJH-16" value="Nombre" style="text;align=left;verticalAlign=top;spacingLeft=4;spacingRight=4;overflow=hidden;rotatable=0;points=[[0,0.5],[1,0.5]];portConstraint=eastwest;" vertex="1" parent="xZxbgVRhVAFPskiZTyJH-15">
          <mxGeometry y="26" width="160" height="26" as="geometry" />
        </mxCell>
        <mxCell id="xZxbgVRhVAFPskiZTyJH-17" value="ID" style="text;align=left;verticalAlign=top;spacingLeft=4;spacingRight=4;overflow=hidden;rotatable=0;points=[[0,0.5],[1,0.5]];portConstraint=eastwest;rounded=0;shadow=0;html=0;" vertex="1" parent="xZxbgVRhVAFPskiZTyJH-15">
          <mxGeometry y="52" width="160" height="28" as="geometry" />
        </mxCell>
        <mxCell id="xZxbgVRhVAFPskiZTyJH-18" value="usuario&lt;br&gt;" style="text;strokeColor=none;fillColor=none;align=left;verticalAlign=top;spacingLeft=4;spacingRight=4;overflow=hidden;rotatable=0;points=[[0,0.5],[1,0.5]];portConstraint=eastwest;whiteSpace=wrap;html=1;" vertex="1" parent="xZxbgVRhVAFPskiZTyJH-15">
          <mxGeometry y="80" width="160" height="26" as="geometry" />
        </mxCell>
        <mxCell id="xZxbgVRhVAFPskiZTyJH-19" value="CÃ³digo" style="text;align=left;verticalAlign=top;spacingLeft=4;spacingRight=4;overflow=hidden;rotatable=0;points=[[0,0.5],[1,0.5]];portConstraint=eastwest;rounded=0;shadow=0;html=0;" vertex="1" parent="xZxbgVRhVAFPskiZTyJH-15">
          <mxGeometry y="106" width="160" height="30" as="geometry" />
        </mxCell>
        <mxCell id="xZxbgVRhVAFPskiZTyJH-20" value="" style="line;html=1;strokeWidth=1;align=left;verticalAlign=middle;spacingTop=-1;spacingLeft=3;spacingRight=3;rotatable=0;labelPosition=right;points=[];portConstraint=eastwest;" vertex="1" parent="xZxbgVRhVAFPskiZTyJH-15">
          <mxGeometry y="136" width="160" height="8" as="geometry" />
        </mxCell>
        <mxCell id="xZxbgVRhVAFPskiZTyJH-22" style="edgeStyle=orthogonalEdgeStyle;rounded=0;orthogonalLoop=1;jettySize=auto;html=1;entryX=0;entryY=0.057;entryDx=0;entryDy=0;entryPerimeter=0;" edge="1" parent="HUmP4-jnOYjWoAJB47kP-1" source="Lfw9JMB-DRZQ4h1b1JHC-1" target="HUmP4-jnOYjWoAJB47kP-2">
          <mxGeometry relative="1" as="geometry" />
        </mxCell>
        <mxCell id="xZxbgVRhVAFPskiZTyJH-24" style="edgeStyle=orthogonalEdgeStyle;rounded=0;orthogonalLoop=1;jettySize=auto;html=1;entryX=-0.025;entryY=0.075;entryDx=0;entryDy=0;entryPerimeter=0;" edge="1" parent="HUmP4-jnOYjWoAJB47kP-1" source="HUmP4-jnOYjWoAJB47kP-2" target="xZxbgVRhVAFPskiZTyJH-1">
          <mxGeometry relative="1" as="geometry" />
        </mxCell>
        <mxCell id="xZxbgVRhVAFPskiZTyJH-45" style="edgeStyle=orthogonalEdgeStyle;rounded=0;orthogonalLoop=1;jettySize=auto;html=1;" edge="1" parent="HUmP4-jnOYjWoAJB47kP-1" source="xZxbgVRhVAFPskiZTyJH-27" target="Lfw9JMB-DRZQ4h1b1JHC-3">
          <mxGeometry relative="1" as="geometry" />
        </mxCell>
        <mxCell id="xZxbgVRhVAFPskiZTyJH-27" value="Factura" style="swimlane;fontStyle=2;align=center;verticalAlign=top;childLayout=stackLayout;horizontal=1;startSize=26;horizontalStack=0;resizeParent=1;resizeLast=0;collapsible=1;marginBottom=0;rounded=0;shadow=0;strokeWidth=1;" vertex="1" parent="HUmP4-jnOYjWoAJB47kP-1">
          <mxGeometry x="60" y="240" width="160" height="110" as="geometry">
            <mxRectangle x="230" y="140" width="160" height="26" as="alternateBounds" />
          </mxGeometry>
        </mxCell>
        <mxCell id="xZxbgVRhVAFPskiZTyJH-30" value="Cantidad" style="text;strokeColor=none;fillColor=none;align=left;verticalAlign=top;spacingLeft=4;spacingRight=4;overflow=hidden;rotatable=0;points=[[0,0.5],[1,0.5]];portConstraint=eastwest;whiteSpace=wrap;html=1;" vertex="1" parent="xZxbgVRhVAFPskiZTyJH-27">
          <mxGeometry y="26" width="160" height="26" as="geometry" />
        </mxCell>
        <mxCell id="xZxbgVRhVAFPskiZTyJH-31" value="Valor" style="text;align=left;verticalAlign=top;spacingLeft=4;spacingRight=4;overflow=hidden;rotatable=0;points=[[0,0.5],[1,0.5]];portConstraint=eastwest;rounded=0;shadow=0;html=0;" vertex="1" parent="xZxbgVRhVAFPskiZTyJH-27">
          <mxGeometry y="52" width="160" height="28" as="geometry" />
        </mxCell>
        <mxCell id="xZxbgVRhVAFPskiZTyJH-34" value="Cliente" style="swimlane;fontStyle=2;align=center;verticalAlign=top;childLayout=stackLayout;horizontal=1;startSize=26;horizontalStack=0;resizeParent=1;resizeLast=0;collapsible=1;marginBottom=0;rounded=0;shadow=0;strokeWidth=1;" vertex="1" parent="HUmP4-jnOYjWoAJB47kP-1">
          <mxGeometry x="80" y="396" width="160" height="174" as="geometry">
            <mxRectangle x="230" y="140" width="160" height="26" as="alternateBounds" />
          </mxGeometry>
        </mxCell>
        <mxCell id="xZxbgVRhVAFPskiZTyJH-35" value="Nombre" style="text;align=left;verticalAlign=top;spacingLeft=4;spacingRight=4;overflow=hidden;rotatable=0;points=[[0,0.5],[1,0.5]];portConstraint=eastwest;" vertex="1" parent="xZxbgVRhVAFPskiZTyJH-34">
          <mxGeometry y="26" width="160" height="26" as="geometry" />
        </mxCell>
        <mxCell id="xZxbgVRhVAFPskiZTyJH-36" value="ID" style="text;align=left;verticalAlign=top;spacingLeft=4;spacingRight=4;overflow=hidden;rotatable=0;points=[[0,0.5],[1,0.5]];portConstraint=eastwest;rounded=0;shadow=0;html=0;" vertex="1" parent="xZxbgVRhVAFPskiZTyJH-34">
          <mxGeometry y="52" width="160" height="28" as="geometry" />
        </mxCell>
        <mxCell id="xZxbgVRhVAFPskiZTyJH-38" value="Edad" style="text;align=left;verticalAlign=top;spacingLeft=4;spacingRight=4;overflow=hidden;rotatable=0;points=[[0,0.5],[1,0.5]];portConstraint=eastwest;rounded=0;shadow=0;html=0;" vertex="1" parent="xZxbgVRhVAFPskiZTyJH-34">
          <mxGeometry y="80" width="160" height="30" as="geometry" />
        </mxCell>
        <mxCell id="xZxbgVRhVAFPskiZTyJH-39" value="" style="line;html=1;strokeWidth=1;align=left;verticalAlign=middle;spacingTop=-1;spacingLeft=3;spacingRight=3;rotatable=0;labelPosition=right;points=[];portConstraint=eastwest;" vertex="1" parent="xZxbgVRhVAFPskiZTyJH-34">
          <mxGeometry y="110" width="160" height="8" as="geometry" />
        </mxCell>
        <mxCell id="xZxbgVRhVAFPskiZTyJH-42" style="edgeStyle=orthogonalEdgeStyle;rounded=0;orthogonalLoop=1;jettySize=auto;html=1;entryX=1;entryY=0;entryDx=0;entryDy=0;" edge="1" parent="HUmP4-jnOYjWoAJB47kP-1" source="HUmP4-jnOYjWoAJB47kP-4" target="xZxbgVRhVAFPskiZTyJH-34">
          <mxGeometry relative="1" as="geometry" />
        </mxCell>
        <mxCell id="xZxbgVRhVAFPskiZTyJH-46" style="edgeStyle=orthogonalEdgeStyle;rounded=0;orthogonalLoop=1;jettySize=auto;html=1;entryX=0.388;entryY=0;entryDx=0;entryDy=0;entryPerimeter=0;" edge="1" parent="HUmP4-jnOYjWoAJB47kP-1" source="xZxbgVRhVAFPskiZTyJH-27" target="xZxbgVRhVAFPskiZTyJH-34">
          <mxGeometry relative="1" as="geometry" />
        </mxCell>
        <mxCell id="xZxbgVRhVAFPskiZTyJH-26" style="edgeStyle=orthogonalEdgeStyle;rounded=0;orthogonalLoop=1;jettySize=auto;html=1;" edge="1" parent="HUmP4-jnOYjWoAJB47kP-1">
          <mxGeometry relative="1" as="geometry">
            <mxPoint x="488.5" y="203" as="sourcePoint" />
            <mxPoint x="727.5" y="290" as="targetPoint" />
          </mxGeometry>
        </mxCell>
        <mxCell id="xZxbgVRhVAFPskiZTyJH-50" style="edgeStyle=orthogonalEdgeStyle;rounded=0;orthogonalLoop=1;jettySize=auto;html=1;entryX=0.088;entryY=-0.017;entryDx=0;entryDy=0;entryPerimeter=0;" edge="1" parent="HUmP4-jnOYjWoAJB47kP-1" source="xZxbgVRhVAFPskiZTyJH-0" target="xZxbgVRhVAFPskiZTyJH-8">
          <mxGeometry relative="1" as="geometry">
            <mxPoint x="300" y="280" as="targetPoint" />
          </mxGeometry>
        </mxCell>
      </root>
    </mxGraphModel>
  </diagram>
  <diagram name="ADMINISTRADOR" id="kMSU-xu5slgGzOFPiZyY">
    <mxGraphModel dx="794" dy="478" grid="1" gridSize="10" guides="1" tooltips="1" connect="1" arrows="1" fold="1" page="1" pageScale="1" pageWidth="827" pageHeight="1169" math="0" shadow="0">
      <root>
        <mxCell id="HnRFmJmTObYHODs_ZTnM-0" />
        <mxCell id="HnRFmJmTObYHODs_ZTnM-1" parent="HnRFmJmTObYHODs_ZTnM-0" />
        <mxCell id="HnRFmJmTObYHODs_ZTnM-2" value="Person" style="swimlane;fontStyle=2;align=center;verticalAlign=top;childLayout=stackLayout;horizontal=1;startSize=26;horizontalStack=0;resizeParent=1;resizeLast=0;collapsible=1;marginBottom=0;rounded=0;shadow=0;strokeWidth=1;" parent="HnRFmJmTObYHODs_ZTnM-1" vertex="1">
          <mxGeometry x="220" y="120" width="160" height="138" as="geometry">
            <mxRectangle x="230" y="140" width="160" height="26" as="alternateBounds" />
          </mxGeometry>
        </mxCell>
        <mxCell id="HnRFmJmTObYHODs_ZTnM-3" value="Name" style="text;align=left;verticalAlign=top;spacingLeft=4;spacingRight=4;overflow=hidden;rotatable=0;points=[[0,0.5],[1,0.5]];portConstraint=eastwest;" parent="HnRFmJmTObYHODs_ZTnM-2" vertex="1">
          <mxGeometry y="26" width="160" height="26" as="geometry" />
        </mxCell>
        <mxCell id="HnRFmJmTObYHODs_ZTnM-4" value="Phone Number" style="text;align=left;verticalAlign=top;spacingLeft=4;spacingRight=4;overflow=hidden;rotatable=0;points=[[0,0.5],[1,0.5]];portConstraint=eastwest;rounded=0;shadow=0;html=0;" parent="HnRFmJmTObYHODs_ZTnM-2" vertex="1">
          <mxGeometry y="52" width="160" height="26" as="geometry" />
        </mxCell>
        <mxCell id="HnRFmJmTObYHODs_ZTnM-5" value="Email Address" style="text;align=left;verticalAlign=top;spacingLeft=4;spacingRight=4;overflow=hidden;rotatable=0;points=[[0,0.5],[1,0.5]];portConstraint=eastwest;rounded=0;shadow=0;html=0;" parent="HnRFmJmTObYHODs_ZTnM-2" vertex="1">
          <mxGeometry y="78" width="160" height="26" as="geometry" />
        </mxCell>
        <mxCell id="HnRFmJmTObYHODs_ZTnM-6" value="" style="line;html=1;strokeWidth=1;align=left;verticalAlign=middle;spacingTop=-1;spacingLeft=3;spacingRight=3;rotatable=0;labelPosition=right;points=[];portConstraint=eastwest;" parent="HnRFmJmTObYHODs_ZTnM-2" vertex="1">
          <mxGeometry y="104" width="160" height="8" as="geometry" />
        </mxCell>
        <mxCell id="HnRFmJmTObYHODs_ZTnM-7" value="Purchase Parking Pass" style="text;align=left;verticalAlign=top;spacingLeft=4;spacingRight=4;overflow=hidden;rotatable=0;points=[[0,0.5],[1,0.5]];portConstraint=eastwest;" parent="HnRFmJmTObYHODs_ZTnM-2" vertex="1">
          <mxGeometry y="112" width="160" height="26" as="geometry" />
        </mxCell>
        <mxCell id="HnRFmJmTObYHODs_ZTnM-8" value="Student" style="swimlane;fontStyle=0;align=center;verticalAlign=top;childLayout=stackLayout;horizontal=1;startSize=26;horizontalStack=0;resizeParent=1;resizeLast=0;collapsible=1;marginBottom=0;rounded=0;shadow=0;strokeWidth=1;" parent="HnRFmJmTObYHODs_ZTnM-1" vertex="1">
          <mxGeometry x="120" y="360" width="160" height="138" as="geometry">
            <mxRectangle x="130" y="380" width="160" height="26" as="alternateBounds" />
          </mxGeometry>
        </mxCell>
        <mxCell id="HnRFmJmTObYHODs_ZTnM-9" value="Student Number" style="text;align=left;verticalAlign=top;spacingLeft=4;spacingRight=4;overflow=hidden;rotatable=0;points=[[0,0.5],[1,0.5]];portConstraint=eastwest;" parent="HnRFmJmTObYHODs_ZTnM-8" vertex="1">
          <mxGeometry y="26" width="160" height="26" as="geometry" />
        </mxCell>
        <mxCell id="HnRFmJmTObYHODs_ZTnM-10" value="Average Mark" style="text;align=left;verticalAlign=top;spacingLeft=4;spacingRight=4;overflow=hidden;rotatable=0;points=[[0,0.5],[1,0.5]];portConstraint=eastwest;rounded=0;shadow=0;html=0;" parent="HnRFmJmTObYHODs_ZTnM-8" vertex="1">
          <mxGeometry y="52" width="160" height="26" as="geometry" />
        </mxCell>
        <mxCell id="HnRFmJmTObYHODs_ZTnM-11" value="" style="line;html=1;strokeWidth=1;align=left;verticalAlign=middle;spacingTop=-1;spacingLeft=3;spacingRight=3;rotatable=0;labelPosition=right;points=[];portConstraint=eastwest;" parent="HnRFmJmTObYHODs_ZTnM-8" vertex="1">
          <mxGeometry y="78" width="160" height="8" as="geometry" />
        </mxCell>
        <mxCell id="HnRFmJmTObYHODs_ZTnM-12" value="Is Eligible To Enroll" style="text;align=left;verticalAlign=top;spacingLeft=4;spacingRight=4;overflow=hidden;rotatable=0;points=[[0,0.5],[1,0.5]];portConstraint=eastwest;fontStyle=4" parent="HnRFmJmTObYHODs_ZTnM-8" vertex="1">
          <mxGeometry y="86" width="160" height="26" as="geometry" />
        </mxCell>
        <mxCell id="HnRFmJmTObYHODs_ZTnM-13" value="Get Seminars Taken" style="text;align=left;verticalAlign=top;spacingLeft=4;spacingRight=4;overflow=hidden;rotatable=0;points=[[0,0.5],[1,0.5]];portConstraint=eastwest;" parent="HnRFmJmTObYHODs_ZTnM-8" vertex="1">
          <mxGeometry y="112" width="160" height="26" as="geometry" />
        </mxCell>
        <mxCell id="HnRFmJmTObYHODs_ZTnM-14" value="" style="endArrow=block;endSize=10;endFill=0;shadow=0;strokeWidth=1;rounded=0;edgeStyle=elbowEdgeStyle;elbow=vertical;" parent="HnRFmJmTObYHODs_ZTnM-1" source="HnRFmJmTObYHODs_ZTnM-8" target="HnRFmJmTObYHODs_ZTnM-2" edge="1">
          <mxGeometry width="160" relative="1" as="geometry">
            <mxPoint x="200" y="203" as="sourcePoint" />
            <mxPoint x="200" y="203" as="targetPoint" />
          </mxGeometry>
        </mxCell>
        <mxCell id="HnRFmJmTObYHODs_ZTnM-15" value="Professor" style="swimlane;fontStyle=0;align=center;verticalAlign=top;childLayout=stackLayout;horizontal=1;startSize=26;horizontalStack=0;resizeParent=1;resizeLast=0;collapsible=1;marginBottom=0;rounded=0;shadow=0;strokeWidth=1;" parent="HnRFmJmTObYHODs_ZTnM-1" vertex="1">
          <mxGeometry x="330" y="360" width="160" height="70" as="geometry">
            <mxRectangle x="340" y="380" width="170" height="26" as="alternateBounds" />
          </mxGeometry>
        </mxCell>
        <mxCell id="HnRFmJmTObYHODs_ZTnM-16" value="Salary" style="text;align=left;verticalAlign=top;spacingLeft=4;spacingRight=4;overflow=hidden;rotatable=0;points=[[0,0.5],[1,0.5]];portConstraint=eastwest;" parent="HnRFmJmTObYHODs_ZTnM-15" vertex="1">
          <mxGeometry y="26" width="160" height="26" as="geometry" />
        </mxCell>
        <mxCell id="HnRFmJmTObYHODs_ZTnM-17" value="" style="line;html=1;strokeWidth=1;align=left;verticalAlign=middle;spacingTop=-1;spacingLeft=3;spacingRight=3;rotatable=0;labelPosition=right;points=[];portConstraint=eastwest;" parent="HnRFmJmTObYHODs_ZTnM-15" vertex="1">
          <mxGeometry y="52" width="160" height="8" as="geometry" />
        </mxCell>
        <mxCell id="HnRFmJmTObYHODs_ZTnM-18" value="" style="endArrow=block;endSize=10;endFill=0;shadow=0;strokeWidth=1;rounded=0;edgeStyle=elbowEdgeStyle;elbow=vertical;" parent="HnRFmJmTObYHODs_ZTnM-1" source="HnRFmJmTObYHODs_ZTnM-15" target="HnRFmJmTObYHODs_ZTnM-2" edge="1">
          <mxGeometry width="160" relative="1" as="geometry">
            <mxPoint x="210" y="373" as="sourcePoint" />
            <mxPoint x="310" y="271" as="targetPoint" />
          </mxGeometry>
        </mxCell>
        <mxCell id="HnRFmJmTObYHODs_ZTnM-19" value="Address" style="swimlane;fontStyle=0;align=center;verticalAlign=top;childLayout=stackLayout;horizontal=1;startSize=26;horizontalStack=0;resizeParent=1;resizeLast=0;collapsible=1;marginBottom=0;rounded=0;shadow=0;strokeWidth=1;" parent="HnRFmJmTObYHODs_ZTnM-1" vertex="1">
          <mxGeometry x="508" y="120" width="160" height="216" as="geometry">
            <mxRectangle x="550" y="140" width="160" height="26" as="alternateBounds" />
          </mxGeometry>
        </mxCell>
        <mxCell id="HnRFmJmTObYHODs_ZTnM-20" value="Street" style="text;align=left;verticalAlign=top;spacingLeft=4;spacingRight=4;overflow=hidden;rotatable=0;points=[[0,0.5],[1,0.5]];portConstraint=eastwest;" parent="HnRFmJmTObYHODs_ZTnM-19" vertex="1">
          <mxGeometry y="26" width="160" height="26" as="geometry" />
        </mxCell>
        <mxCell id="HnRFmJmTObYHODs_ZTnM-21" value="City" style="text;align=left;verticalAlign=top;spacingLeft=4;spacingRight=4;overflow=hidden;rotatable=0;points=[[0,0.5],[1,0.5]];portConstraint=eastwest;rounded=0;shadow=0;html=0;" parent="HnRFmJmTObYHODs_ZTnM-19" vertex="1">
          <mxGeometry y="52" width="160" height="26" as="geometry" />
        </mxCell>
        <mxCell id="HnRFmJmTObYHODs_ZTnM-22" value="State" style="text;align=left;verticalAlign=top;spacingLeft=4;spacingRight=4;overflow=hidden;rotatable=0;points=[[0,0.5],[1,0.5]];portConstraint=eastwest;rounded=0;shadow=0;html=0;" parent="HnRFmJmTObYHODs_ZTnM-19" vertex="1">
          <mxGeometry y="78" width="160" height="26" as="geometry" />
        </mxCell>
        <mxCell id="HnRFmJmTObYHODs_ZTnM-23" value="Postal Code" style="text;align=left;verticalAlign=top;spacingLeft=4;spacingRight=4;overflow=hidden;rotatable=0;points=[[0,0.5],[1,0.5]];portConstraint=eastwest;rounded=0;shadow=0;html=0;" parent="HnRFmJmTObYHODs_ZTnM-19" vertex="1">
          <mxGeometry y="104" width="160" height="26" as="geometry" />
        </mxCell>
        <mxCell id="HnRFmJmTObYHODs_ZTnM-24" value="Country" style="text;align=left;verticalAlign=top;spacingLeft=4;spacingRight=4;overflow=hidden;rotatable=0;points=[[0,0.5],[1,0.5]];portConstraint=eastwest;rounded=0;shadow=0;html=0;" parent="HnRFmJmTObYHODs_ZTnM-19" vertex="1">
          <mxGeometry y="130" width="160" height="26" as="geometry" />
        </mxCell>
        <mxCell id="HnRFmJmTObYHODs_ZTnM-25" value="" style="line;html=1;strokeWidth=1;align=left;verticalAlign=middle;spacingTop=-1;spacingLeft=3;spacingRight=3;rotatable=0;labelPosition=right;points=[];portConstraint=eastwest;" parent="HnRFmJmTObYHODs_ZTnM-19" vertex="1">
          <mxGeometry y="156" width="160" height="8" as="geometry" />
        </mxCell>
        <mxCell id="HnRFmJmTObYHODs_ZTnM-26" value="Validate" style="text;align=left;verticalAlign=top;spacingLeft=4;spacingRight=4;overflow=hidden;rotatable=0;points=[[0,0.5],[1,0.5]];portConstraint=eastwest;" parent="HnRFmJmTObYHODs_ZTnM-19" vertex="1">
          <mxGeometry y="164" width="160" height="26" as="geometry" />
        </mxCell>
        <mxCell id="HnRFmJmTObYHODs_ZTnM-27" value="Output As Label" style="text;align=left;verticalAlign=top;spacingLeft=4;spacingRight=4;overflow=hidden;rotatable=0;points=[[0,0.5],[1,0.5]];portConstraint=eastwest;" parent="HnRFmJmTObYHODs_ZTnM-19" vertex="1">
          <mxGeometry y="190" width="160" height="26" as="geometry" />
        </mxCell>
        <mxCell id="HnRFmJmTObYHODs_ZTnM-28" value="" style="endArrow=open;shadow=0;strokeWidth=1;rounded=0;endFill=1;edgeStyle=elbowEdgeStyle;elbow=vertical;" parent="HnRFmJmTObYHODs_ZTnM-1" source="HnRFmJmTObYHODs_ZTnM-2" target="HnRFmJmTObYHODs_ZTnM-19" edge="1">
          <mxGeometry x="0.5" y="41" relative="1" as="geometry">
            <mxPoint x="380" y="192" as="sourcePoint" />
            <mxPoint x="540" y="192" as="targetPoint" />
            <mxPoint x="-40" y="32" as="offset" />
          </mxGeometry>
        </mxCell>
        <mxCell id="HnRFmJmTObYHODs_ZTnM-29" value="0..1" style="resizable=0;align=left;verticalAlign=bottom;labelBackgroundColor=none;fontSize=12;" parent="HnRFmJmTObYHODs_ZTnM-28" connectable="0" vertex="1">
          <mxGeometry x="-1" relative="1" as="geometry">
            <mxPoint y="4" as="offset" />
          </mxGeometry>
        </mxCell>
        <mxCell id="HnRFmJmTObYHODs_ZTnM-30" value="1" style="resizable=0;align=right;verticalAlign=bottom;labelBackgroundColor=none;fontSize=12;" parent="HnRFmJmTObYHODs_ZTnM-28" connectable="0" vertex="1">
          <mxGeometry x="1" relative="1" as="geometry">
            <mxPoint x="-7" y="4" as="offset" />
          </mxGeometry>
        </mxCell>
        <mxCell id="HnRFmJmTObYHODs_ZTnM-31" value="lives at" style="text;html=1;resizable=0;points=[];;align=center;verticalAlign=middle;labelBackgroundColor=none;rounded=0;shadow=0;strokeWidth=1;fontSize=12;" parent="HnRFmJmTObYHODs_ZTnM-28" vertex="1" connectable="0">
          <mxGeometry x="0.5" y="49" relative="1" as="geometry">
            <mxPoint x="-38" y="40" as="offset" />
          </mxGeometry>
        </mxCell>
      </root>
    </mxGraphModel>
  </diagram>
</mxfile>
